<svg width="294" height="31" viewBox="0 0 294 31" fill="none" xmlns="http://www.w3.org/2000/svg">
<path d="M0.68 30H11.04C18.92 30 23.76 24.92 23.76 15.72C23.76 6.52 18.92 1.4 11.04 1.4H0.68V30ZM4.28 4.6H11.04C18.32 4.6 20.16 10.12 20.16 15.72C20.16 21.32 18.32 26.8 11.04 26.8H4.28V4.6ZM28.5037 1.4V30H32.1037V1.4H28.5037ZM51.0406 30.56C59.4406 30.56 65.0406 24.28 65.0406 15.68C65.0406 7.08 59.4406 0.839999 51.0406 0.839999C42.6406 0.839999 37.0406 7.08 37.0406 15.68C37.0406 24.28 42.6406 30.56 51.0406 30.56ZM51.0406 27.36C43.8406 27.36 40.6406 21.84 40.6406 15.68C40.6406 9.52 43.8406 4.04 51.0406 4.04C58.2406 4.04 61.4406 9.52 61.4406 15.68C61.4406 21.84 58.2406 27.36 51.0406 27.36ZM90.3716 10.04H93.9716C92.9716 4.6 89.1716 0.839999 81.9316 0.839999C74.0116 0.839999 68.6516 7.08 68.6516 15.68C68.6516 24.32 73.2116 30.56 81.5316 30.56C85.9316 30.56 88.6116 28.96 90.7716 25.96H90.8516L92.0516 30H94.4516V15.12H81.5316V18.32H90.8516C90.8516 23.68 86.6516 27.36 81.5316 27.36C74.3316 27.36 72.2516 21.08 72.2516 15.68C72.2516 10.32 75.1316 4.04 81.9316 4.04C86.2516 4.04 89.5316 5.96 90.3716 10.04ZM112.739 30.56C121.139 30.56 126.739 24.28 126.739 15.68C126.739 7.08 121.139 0.839999 112.739 0.839999C104.339 0.839999 98.7391 7.08 98.7391 15.68C98.7391 24.28 104.339 30.56 112.739 30.56ZM112.739 27.36C105.539 27.36 102.339 21.84 102.339 15.68C102.339 9.52 105.539 4.04 112.739 4.04C119.939 4.04 123.139 9.52 123.139 15.68C123.139 21.84 119.939 27.36 112.739 27.36ZM156.817 14.32C151.377 13.36 147.977 12.36 147.977 7.84C147.977 4.28 151.137 2.08 155.817 2.08C161.217 2.08 163.937 4.84 164.337 9.08H165.617C165.257 3.88 161.457 0.96 155.817 0.96C150.617 0.96 146.697 3.32 146.697 7.84C146.697 12.52 149.937 14.32 155.417 15.24C162.017 16.36 165.457 17.64 165.417 22.52C165.377 26.16 162.657 29.32 157.097 29.32C151.137 29.32 147.217 26.32 146.857 20.8H145.577C145.937 27.32 150.817 30.44 157.097 30.44C163.217 30.44 166.697 26.88 166.697 22.52C166.697 17.4 163.377 15.48 156.817 14.32ZM186.905 20.28L190.665 30H191.945L180.905 1.4H179.385L168.425 30H169.705L173.465 20.28H186.905ZM173.865 19.16L180.105 2.88H180.185L186.465 19.16H173.865ZM195.245 30H196.525V17.4H206.645C214.845 17.4 212.685 28.8 214.205 30H215.605V29.76C213.965 29.28 215.965 17.72 208.725 16.88V16.8C212.605 16.08 215.085 13.52 215.085 9.4C215.085 3.92 211.605 1.4 206.445 1.4H195.245V30ZM196.525 2.52H205.685C210.965 2.52 213.805 4.56 213.805 9.4C213.805 13.96 210.365 16.28 205.685 16.28H196.525V2.52ZM236.064 20.28L239.824 30H241.104L230.064 1.4H228.544L217.584 30H218.864L222.624 20.28H236.064ZM223.024 19.16L229.264 2.88H229.344L235.624 19.16H223.024ZM244.525 1.4V30H245.805V1.4H244.525ZM249.283 1.4L260.243 30H261.243L272.203 1.4H270.883L260.763 27.72H260.723L250.603 1.4H249.283ZM288.358 20.28L292.118 30H293.398L282.358 1.4H280.838L269.878 30H271.158L274.918 20.28H288.358ZM275.318 19.16L281.558 2.88H281.638L287.918 19.16H275.318Z" fill="#282828"/>
<path d="M129.39 1.4L140.47 30H143.67L132.59 1.4H129.39Z" fill="#FFE600"/>
</svg>
