<svg width="20" height="20" viewBox="0 0 20 20" fill="none" xmlns="http://www.w3.org/2000/svg">
<path d="M19.5822 5.15801C19.4662 4.74272 19.2451 4.36437 18.9401 4.05956C18.6351 3.75475 18.2567 3.53381 17.8413 3.41809C16.2823 3.00001 10.0093 3.00001 10.0093 3.00001C10.0093 3.00001 3.75145 2.99144 2.17628 3.41809C1.76092 3.53381 1.38245 3.75475 1.07748 4.05956C0.772509 4.36437 0.551354 4.74272 0.43541 5.15801C0.139683 6.75417 -0.00602566 8.37449 0.00019079 9.9978C-0.00534729 11.6147 0.140039 13.2286 0.434457 14.8185C0.550202 15.2343 0.771372 15.6131 1.07654 15.9183C1.38171 16.2235 1.76052 16.4446 2.17628 16.5604C3.73336 16.9794 10.0093 16.9794 10.0093 16.9794C10.0093 16.9794 16.2661 16.9794 17.8413 16.5604C18.2567 16.4446 18.6351 16.2237 18.9401 15.9189C19.2451 15.6141 19.4662 15.2357 19.5822 14.8204C19.8704 13.2299 20.0101 11.6161 19.9993 9.9997C20.0111 8.37635 19.8715 6.75542 19.5822 5.15801V5.15801ZM8.0065 12.991V6.99127L13.2282 9.99399L8.0065 12.991Z" fill="#282828"/>
</svg>
