<svg width="20" height="20" viewBox="0 0 20 20" fill="none" xmlns="http://www.w3.org/2000/svg">
<path d="M19.94 5.87976C19.9206 5.05005 19.7652 4.22916 19.48 3.44976C19.2283 2.78156 18.8322 2.17718 18.32 1.67976C17.8226 1.16751 17.2182 0.771419 16.55 0.519756C15.7706 0.234599 14.9497 0.0792035 14.12 0.0597558C13.06 -0.000244197 12.72 -0.000244141 10 -0.000244141C7.28 -0.000244141 6.94 -0.000244197 5.88 0.0597558C5.0503 0.0792035 4.2294 0.234599 3.45 0.519756C2.78181 0.771419 2.17742 1.16751 1.68 1.67976C1.16743 2.17493 0.774176 2.7802 0.53 3.44976C0.236161 4.2271 0.07721 5.04891 0.0599999 5.87976C-5.58794e-08 6.93976 0 7.27976 0 9.99976C0 12.7198 -5.58794e-08 13.0598 0.0599999 14.1198C0.07721 14.9506 0.236161 15.7724 0.53 16.5498C0.774176 17.2193 1.16743 17.8246 1.68 18.3198C2.17742 18.832 2.78181 19.2281 3.45 19.4798C4.2294 19.7649 5.0503 19.9203 5.88 19.9398C6.94 19.9998 7.28 19.9998 10 19.9998C12.72 19.9998 13.06 19.9998 14.12 19.9398C14.9497 19.9203 15.7706 19.7649 16.55 19.4798C17.2134 19.2188 17.816 18.824 18.3201 18.3198C18.8242 17.8157 19.219 17.2132 19.48 16.5498C19.7652 15.7704 19.9206 14.9495 19.94 14.1198C19.94 13.0598 20 12.7198 20 9.99976C20 7.27976 20 6.93976 19.94 5.87976ZM18.14 13.9998C18.1327 14.6345 18.0178 15.2635 17.8 15.8598C17.6327 16.2911 17.3773 16.6828 17.0501 17.0099C16.723 17.337 16.3313 17.5924 15.9 17.7598C15.3037 17.9775 14.6748 18.0925 14.04 18.0998C13.04 18.1498 12.67 18.1598 10.04 18.1598C7.41 18.1598 7.04 18.1598 6.04 18.0998C5.38073 18.1146 4.72401 18.013 4.1 17.7998C3.66869 17.6324 3.27698 17.377 2.94985 17.0499C2.62272 16.7228 2.36734 16.3311 2.2 15.8998C1.97775 15.2908 1.86271 14.648 1.86 13.9998C1.86 12.9998 1.8 12.6298 1.8 9.99976C1.8 7.36976 1.8 6.99976 1.86 5.99976C1.86271 5.35154 1.97775 4.70869 2.2 4.09976C2.36734 3.66845 2.62272 3.27674 2.94985 2.94961C3.27698 2.62248 3.66869 2.3671 4.1 2.19976C4.70893 1.9775 5.35178 1.86247 6 1.85976C7 1.85976 7.37 1.79976 10 1.79976C12.63 1.79976 13 1.79976 14 1.85976C14.6348 1.86704 15.2637 1.982 15.86 2.19976C16.2913 2.3671 16.683 2.62248 17.0101 2.94961C17.3373 3.27674 17.5927 3.66845 17.76 4.09976C17.9959 4.70626 18.1245 5.34918 18.14 5.99976C18.19 6.99976 18.2 7.36976 18.2 9.99976C18.2 12.6298 18.19 12.9998 18.14 13.9998Z" fill="#282828"/>
<path d="M9.99999 4.85974C8.98339 4.85974 7.98963 5.1612 7.14436 5.72599C6.29909 6.29078 5.64028 7.09354 5.25125 8.03275C4.86221 8.97196 4.76042 10.0054 4.95875 11.0025C5.15708 11.9996 5.64662 12.9154 6.36546 13.6343C7.0843 14.3531 8.00016 14.8426 8.99722 15.041C9.99429 15.2393 11.0278 15.1375 11.967 14.7485C12.9062 14.3594 13.709 13.7006 14.2737 12.8554C14.8385 12.0101 15.14 11.0163 15.14 9.99974C15.14 8.63653 14.5985 7.32915 13.6345 6.36521C12.6706 5.40127 11.3632 4.85974 9.99999 4.85974ZM9.99999 13.3297C9.34138 13.3297 8.69755 13.1344 8.14994 12.7685C7.60232 12.4026 7.17551 11.8826 6.92347 11.2741C6.67143 10.6656 6.60548 9.99605 6.73397 9.35009C6.86246 8.70413 7.17961 8.11078 7.64532 7.64508C8.11103 7.17937 8.70438 6.86221 9.35034 6.73373C9.99629 6.60524 10.6658 6.67118 11.2743 6.92322C11.8828 7.17526 12.4029 7.60208 12.7688 8.14969C13.1347 8.69731 13.33 9.34113 13.33 9.99974C13.33 10.437 13.2439 10.8701 13.0765 11.2741C12.9092 11.6781 12.6639 12.0452 12.3547 12.3544C12.0454 12.6636 11.6783 12.9089 11.2743 13.0763C10.8703 13.2436 10.4373 13.3297 9.99999 13.3297Z" fill="#282828"/>
<path d="M15.34 3.45972C15.1027 3.45972 14.8707 3.5301 14.6733 3.66195C14.476 3.79381 14.3222 3.98123 14.2314 4.2005C14.1405 4.41977 14.1168 4.66105 14.1631 4.89383C14.2094 5.1266 14.3237 5.34042 14.4915 5.50824C14.6593 5.67607 14.8731 5.79036 15.1059 5.83666C15.3387 5.88296 15.58 5.8592 15.7992 5.76837C16.0185 5.67755 16.2059 5.52374 16.3378 5.3264C16.4696 5.12906 16.54 4.89705 16.54 4.65972C16.54 4.34146 16.4136 4.03623 16.1885 3.81119C15.9635 3.58615 15.6583 3.45972 15.34 3.45972V3.45972Z" fill="#282828"/>
</svg>
