<svg width="20" height="20" viewBox="0 0 20 20" fill="none" xmlns="http://www.w3.org/2000/svg">
<path d="M17.039 17.0431H14.078V12.4001C14.078 11.2941 14.055 9.87011 12.534 9.87011C10.99 9.87011 10.754 11.0701 10.754 12.3191V17.0411H7.792V7.50011H10.637V8.80011H10.676C10.9609 8.31325 11.3725 7.91274 11.867 7.6412C12.3614 7.36967 12.9203 7.23728 13.484 7.25811C16.484 7.25811 17.04 9.23311 17.04 11.8041V17.0421L17.039 17.0431ZM4.447 6.19411C4.1069 6.19392 3.7745 6.0929 3.4918 5.90382C3.2091 5.71475 2.98879 5.44611 2.85874 5.13187C2.72868 4.81762 2.6947 4.47187 2.7611 4.13831C2.8275 3.80476 2.99129 3.49838 3.23178 3.25789C3.47226 3.0174 3.77865 2.85361 4.1122 2.78721C4.44575 2.72081 4.79151 2.75479 5.10575 2.88485C5.42 3.01491 5.68864 3.23521 5.87771 3.51791C6.06678 3.80061 6.1678 4.13301 6.168 4.47311C6.16826 4.69919 6.12393 4.9231 6.03753 5.13202C5.95114 5.34094 5.82438 5.53077 5.66452 5.69063C5.50466 5.85049 5.31483 5.97725 5.10591 6.06365C4.89699 6.15004 4.67308 6.19438 4.447 6.19411V6.19411ZM5.932 17.0431H2.963V7.50011H5.932V17.0431ZM18.521 0.000113019H1.476C1.28445 -0.00226488 1.0943 0.0331301 0.916432 0.104275C0.738564 0.175419 0.576459 0.280919 0.439384 0.414744C0.302309 0.548569 0.19295 0.708095 0.117558 0.884205C0.0421658 1.06032 0.0022189 1.24956 0 1.44111V18.5591C0.0022189 18.7507 0.0421658 18.9399 0.117558 19.116C0.19295 19.2921 0.302309 19.4517 0.439384 19.5855C0.576459 19.7193 0.738564 19.8248 0.916432 19.896C1.0943 19.9671 1.28445 20.0025 1.476 20.0001H18.518C18.9055 20.0052 19.2792 19.8563 19.5571 19.5861C19.8349 19.316 19.9942 18.9466 20 18.5591V1.44111C19.9939 1.0537 19.8346 0.684486 19.5568 0.414379C19.279 0.144272 18.9054 -0.0046982 18.518 0.000113019H18.521Z" fill="#282828"/>
</svg>
