<svg fill="none" height="274" viewBox="0 0 726 274" width="726" xmlns="http://www.w3.org/2000/svg"><g opacity=".77" stroke="#ffec40" stroke-miterlimit="10" stroke-width="2"><path d="m272.5 1-271.5 271.5" opacity=".77"/><path d="m288.109 1-271.5001 271.5" opacity=".77"/><path d="m303.698 1-271.4998 271.5" opacity=".77"/><path d="m319.307 1-271.5 271.5" opacity=".77"/><path d="m334.916 1-271.5003 271.5" opacity=".77"/><path d="m350.524 1-271.4994 271.5" opacity=".77"/><path d="m366.114 1-271.5001 271.5" opacity=".77"/><path d="m381.723 1-271.5 271.5" opacity=".77"/><path d="m397.332 1-271.5 271.5" opacity=".77"/><path d="m412.94 1-271.5 271.5" opacity=".77"/><path d="m428.53 1-271.5 271.5" opacity=".77"/><path d="m444.139 1-271.501 271.5" opacity=".77"/><path d="m459.747 1-271.5 271.5" opacity=".77"/><path d="m475.337 1-271.5 271.5" opacity=".77"/><path d="m490.946 1-271.5 271.5" opacity=".77"/><path d="m506.554 1-271.5 271.5" opacity=".77"/><path d="m522.163 1-271.5 271.5" opacity=".77"/><path d="m537.752 1-271.499 271.5" opacity=".77"/><path d="m553.361 1-271.5 271.5" opacity=".77"/><path d="m568.97 1-271.5 271.5" opacity=".77"/><path d="m584.559 1-271.5 271.5" opacity=".77"/><path d="m600.168 1-271.5 271.5" opacity=".77"/><path d="m615.777 1-271.5 271.5" opacity=".77"/><path d="m631.386 1-271.5 271.5" opacity=".77"/><path d="m646.975 1-271.5 271.5" opacity=".77"/><path d="m662.584 1-271.5 271.5" opacity=".77"/><path d="m678.193 1-271.5 271.5" opacity=".77"/><path d="m693.802 1-271.5 271.5" opacity=".77"/><path d="m709.391 1-271.5 271.5" opacity=".77"/><path d="m725 1-271.5 271.5" opacity=".77"/></g></svg>