<svg fill="none" height="76" viewBox="0 0 133 76" width="133" xmlns="http://www.w3.org/2000/svg"><g stroke-miterlimit="10"><g stroke="#8bd2bd"><path d="m6.5 76v-13m6.5 6.5h-13z"/><path d="m6.5 44v-13m6.5 6.5h-13z"/><path d="m6.5 13v-13m6.5 6.5h-13z"/></g><g stroke="#1d262d" stroke-width="2"><path d="m6.5 76v-13m6.5 6.5h-13z"/><path d="m6.5 44v-13m6.5 6.5h-13z"/><path d="m6.5 13v-13m6.5 6.5h-13z"/></g><g stroke="#8bd2bd"><path d="m36.5 76v-13m6.5 6.5h-13z"/><path d="m36.5 44v-13m6.5 6.5h-13z"/><path d="m36.5 13v-13m6.5 6.5h-13z"/></g><path d="m36.5 76v-13m6.5 6.5h-13z" stroke="#1d262d" stroke-width="2"/><path d="m36.5 44v-13m6.5 6.5h-13z" stroke="#1d262d" stroke-width="2"/><path d="m36.5 13v-13m6.5 6.5h-13z" stroke="#1d262d" stroke-width="2"/><path d="m66.5 44v-13m6.5 6.5h-13z" stroke="#8bd2bd"/><path d="m66.5 13v-13m6.5 6.5h-13z" stroke="#8bd2bd"/><path d="m66.5 44v-13m6.5 6.5h-13z" stroke="#1d262d" stroke-width="2"/><path d="m66.5 13v-13m6.5 6.5h-13z" stroke="#1d262d" stroke-width="2"/><path d="m96.5 44v-13m6.5 6.5h-13z" stroke="#8bd2bd"/><path d="m96.5 13v-13m6.5 6.5h-13z" stroke="#8bd2bd"/><path d="m96.5 44v-13m6.5 6.5h-13z" stroke="#1d262d" stroke-width="2"/><path d="m96.5 13v-13m6.5 6.5h-13z" stroke="#1d262d" stroke-width="2"/><path d="m126.5 44v-13m6.5 6.5h-13z" stroke="#8bd2bd"/><path d="m126.5 13v-13m6.5 6.5h-13z" stroke="#8bd2bd"/><path d="m126.5 44v-13m6.5 6.5h-13z" stroke="#1d262d" stroke-width="2"/><path d="m126.5 13v-13m6.5 6.5h-13z" stroke="#1d262d" stroke-width="2"/></g></svg>